<?xml version="1.0" encoding="UTF-8"?>
<svg id="Layer_6" data-name="Layer 6" xmlns="http://www.w3.org/2000/svg" viewBox="0 0 1648.86 892.04">
  <defs>
    <style>
      .cls-1 {
        stroke-width: 6px;
      }

      .cls-1, .cls-2, .cls-3 {
        fill: none;
        stroke: #232721;
        stroke-miterlimit: 10;
      }

      .cls-2 {
        stroke-width: 7px;
      }

      .cls-3 {
        stroke-width: 8px;
      }

      .cls-4 {
        fill: #232721;
      }
    </style>
  </defs>
  <path class="cls-3" d="M729.96,134.75c-5.31,43.19-25.95,43.19-31.06,0"/>
  <path class="cls-3" d="M678.35,134.75c-5.31,43.19-25.95,43.19-31.06,0"/>
  <polygon class="cls-4" points="587.99 168.25 588.72 178.68 560.39 175.16 562.12 164.72 587.99 168.25"/>
  <polygon class="cls-4" points="791.86 172.75 791.66 181.88 750.51 179.42 751.44 174.51 791.86 172.75"/>
  <polygon class="cls-4" points="783.19 190.53 781.11 198.69 747.6 187.42 749.4 183.22 783.19 190.53"/>
  <polyline class="cls-2" points="811.33 283.44 813.2 293.14 728.14 305.06 723.57 292.88"/>
  <path class="cls-2" d="M758.08,300.72c21.46,45.7,79.88,29.48,46.4-6.47"/>
  <line class="cls-1" x1="783.77" y1="297.31" x2="795.09" y2="311.47"/>
  <path class="cls-2" d="M852.49,221.24v117.76c0,25.65-241.07,28.31-241.07,0v-115.66c82.23,4.89,162.67,4.45,241.07-2.1Z"/>
  <path class="cls-2" d="M852.49,176.85v44.39c-78.4,6.55-158.84,6.99-241.07,2.1-7.98-.47-18.97-.99-26.98-1.57-4.8-.34-9.12-3.06-11.51-7.23-12.85-22.42-17.5-53.47-3.64-59.73,1.56-.7,3.27-.98,4.98-.98,11.4,0,26.16,0,38.35,0,22.6-108.45,213.01-108.13,237.32,1.03,1.54,6.9,2.42,14.23,2.55,22Z"/>
  <path class="cls-2" d="M645.51,225.05c.16,50.04,81.25,57.67,84.67,1.54-27.99.17-56.22-.36-84.67-1.54Z"/>
  <path class="cls-2" d="M753.42,226.28c1.51,50.14,85.24,56.3,84.76-3.92-28,2.07-56.26,3.36-84.76,3.92Z"/>
  <path class="cls-4" d="M698.04,226.48c-.07,9.92,4.04,21.54,11.43,34.49,13.19-7.47,19.42-19.33,20.59-34.38-10.64.06-21.31.02-32.02-.11Z"/>
  <path class="cls-4" d="M806.1,224.38c-.68,12.62,3.66,24.76,11.28,36.58,14.4-8.15,20.52-21.54,20.79-38.6-10.65.79-21.34,1.46-32.07,2.02Z"/>
</svg>